<svg xmlns="http://www.w3.org/2000/svg" xmlns:xlink="http://www.w3.org/1999/xlink" viewBox="0 0 375 42.67"><defs><style>.cls-1{fill:none;}.cls-2{fill:#036;}.cls-3{clip-path:url(#clip-path);}.cls-4{fill:#fff;}.cls-5{fill:#eee;}</style><clipPath id="clip-path" transform="translate(0 -7)"><rect class="cls-1" width="375" height="56.66"/></clipPath></defs><title>Authenticated</title><g id="Layer_2" data-name="Layer 2"><g id="Footer"><rect class="cls-2" width="375" height="42.67"/><g class="cls-3"><path class="cls-4" d="M118.26,34.26a2.86,2.86,0,0,0-2,.77l-7.13-4.16a2.69,2.69,0,0,0,.09-.7,2.61,2.61,0,0,0-.09-.69l7-4.12a3,3,0,1,0-1-2.19,3.19,3.19,0,0,0,.09.7l-7,4.11a3,3,0,1,0-2,5.19,3,3,0,0,0,2-.81l7.13,4.16a2.82,2.82,0,0,0-.08.65,2.92,2.92,0,1,0,2.91-2.91Z" transform="translate(0 -7)"/><path class="cls-5" d="M269.41,28.17a7.5,7.5,0,0,0-14-2,6,6,0,0,0,.65,12h13a5,5,0,0,0,.36-10Zm-5.36,3v4h-4v-4h-3l5-5,5,5Z" transform="translate(0 -7)"/><path class="cls-5" d="M41.87,19.13h-12a2,2,0,0,0-2,2v14h2v-14h12Zm3,4h-11a2,2,0,0,0-2,2v14a2,2,0,0,0,2,2h11a2,2,0,0,0,2-2v-14A2,2,0,0,0,44.87,23.13Zm0,16h-11v-14h11Z" transform="translate(0 -7)"/><path class="cls-5" d="M330.94,37.13a2,2,0,0,0,2,2h8a2,2,0,0,0,2-2v-12h-12Zm12-15h-2.5l-1-1h-5l-1,1h-2.5a1,1,0,0,0-1,1v1h14v-1A1,1,0,0,0,342.94,22.13Z" transform="translate(0 -7)"/><polygon class="cls-5" points="176.67 32.13 197.66 23.13 176.67 14.13 176.66 21.13 191.66 23.13 176.66 25.13 176.67 32.13"/></g></g></g></svg>