<svg xmlns="http://www.w3.org/2000/svg" viewBox="0 0 130.35 33.03"><defs><style>.cls-1{fill:#58595b;}.cls-2{fill:#007bb5;}.cls-3{fill:#fff;}</style></defs><title>linkedin</title><g id="Layer_2" data-name="Layer 2"><g id="Content"><polygon class="cls-1" points="0 4.88 5.09 4.88 5.09 23.44 14.53 23.44 14.53 28.14 0 28.14 0 4.88"/><path class="cls-1" d="M16.78,12.38h4.9V28.14h-4.9Zm2.45-7.84a2.84,2.84,0,1,1-2.84,2.84,2.84,2.84,0,0,1,2.84-2.84"/><polygon class="cls-1" points="42.15 4.88 47.04 4.88 47.04 18.79 52.59 12.37 58.59 12.37 52.17 19.67 58.46 28.14 52.3 28.14 47.11 20.35 47.04 20.35 47.04 28.14 42.15 28.14 42.15 4.88"/><path class="cls-1" d="M24.39,12.38h4.7v2.15h.06A5.14,5.14,0,0,1,33.79,12c5,0,5.87,3.26,5.87,7.5v8.65H34.77V20.47c0-1.82,0-4.17-2.55-4.17s-2.94,2-2.94,4v7.8H24.39Z"/><path class="cls-1" d="M68.9,18.42a2.94,2.94,0,0,0-3-3,3.25,3.25,0,0,0-3.45,3Zm4.14,7a8.6,8.6,0,0,1-6.69,3.13c-4.89,0-8.81-3.26-8.81-8.32s3.92-8.32,8.81-8.32c4.58,0,7.45,3.26,7.45,8.32v1.53H62.44a3.64,3.64,0,0,0,3.68,3.07,4.18,4.18,0,0,0,3.5-1.92Z"/><path class="cls-1" d="M84,16.19a3.71,3.71,0,0,0-3.92,4,3.92,3.92,0,1,0,7.84,0,3.71,3.71,0,0,0-3.92-4m8.42,12h-4.5V26.05h-.07A6.15,6.15,0,0,1,83,28.53c-4.71,0-7.81-3.4-7.81-8.2,0-4.4,2.74-8.45,7.25-8.45,2,0,3.92.55,5,2.09h.06V4.88h4.9Z"/><path class="cls-2" d="M127.9,0H99.76a2.41,2.41,0,0,0-2.44,2.38V30.65A2.41,2.41,0,0,0,99.76,33H127.9a2.42,2.42,0,0,0,2.45-2.38V2.38A2.42,2.42,0,0,0,127.9,0Z"/><path class="cls-3" d="M102.22,12.38h4.9V28.15h-4.9Zm2.45-7.83a2.84,2.84,0,1,1-2.84,2.84,2.84,2.84,0,0,1,2.84-2.84"/><path class="cls-3" d="M110.19,12.38h4.7v2.16H115A5.14,5.14,0,0,1,119.59,12c5,0,5.87,3.26,5.87,7.51v8.65h-4.89V20.48c0-1.83,0-4.18-2.55-4.18s-2.93,2-2.93,4.05v7.8h-4.9Z"/></g></g></svg>