<svg xmlns="http://www.w3.org/2000/svg" viewBox="0 0 187.5 75.78"><defs><style>.cls-1{fill:#768b69;}.cls-2{fill:#eee;}</style></defs><title>Logon</title><g id="Layer_2" data-name="Layer 2"><g id="Footer"><rect class="cls-1" width="187.5" height="75.78"/><path class="cls-2" d="M62.57,31.58h3.24v8.63H71l-.35,2.39H62.57Z"/><path class="cls-2" d="M84,37.08c0,3.12-1.88,5.73-5.66,5.73s-5.5-2.6-5.5-5.71a5.36,5.36,0,0,1,5.67-5.73C82,31.37,84,33.78,84,37.08Zm-7.83,0c0,2,.68,3.43,2.27,3.43s2.24-1.5,2.24-3.37-.59-3.41-2.28-3.41S76.18,35,76.18,37.05Z"/><path class="cls-2" d="M97.54,42.6H95.38a7.18,7.18,0,0,1-.21-1A3.79,3.79,0,0,1,92,42.83c-3.38,0-5.08-2.56-5.08-5.61,0-3.38,2-5.85,5.64-5.85,3.33,0,4.86,1.9,5.06,3.6h-3.2a1.7,1.7,0,0,0-1.87-1.32c-1.85,0-2.3,1.69-2.3,3.45s.53,3.43,2.31,3.43a1.75,1.75,0,0,0,1.91-1.92v-.07h-2V36.28h5.14Z"/><path class="cls-2" d="M109.63,31.58v11h-3.24v-11Z"/><path class="cls-2" d="M113.32,42.6v-11h3.87c1.16,2.48,2.84,5.83,3.3,7.19h.05c-.12-1.14-.15-3.09-.15-4.85V31.58h3v11h-3.68c-.94-2-2.93-6.13-3.45-7.59h0c.1,1,.11,3.18.11,5.12V42.6Z"/></g></g></svg>