<svg xmlns="http://www.w3.org/2000/svg" viewBox="0 0 294.23 37.15"><defs><style>.cls-1{fill:#768b69;}.cls-2{fill:#eee;}</style></defs><title>NewReport</title><g id="Layer_2" data-name="Layer 2"><g id="Content"><rect class="cls-1" width="294.23" height="37.15"/><path class="cls-2" d="M19.34,19.58A4.35,4.35,0,0,1,14.69,23c-3.44,0-5.1-2.49-5.1-5.63s1.69-5.75,5.19-5.75c2.84,0,4.26,1.65,4.55,3.5H17.26a2.4,2.4,0,0,0-2.55-1.84c-2.13,0-3,1.92-3,4s.76,4.05,3,4.05a2.43,2.43,0,0,0,2.47-1.81Z"/><path class="cls-2" d="M23.32,18.31v4.58h-2V11.82H26c2.37,0,3.64,1.3,3.64,3a2.59,2.59,0,0,1-1.71,2.61c.67.22,1.49.82,1.49,2.78v.52a8.6,8.6,0,0,0,.15,2.14h-2a8,8,0,0,1-.21-2.45v-.18c0-1.34-.36-2-2.21-2Zm0-1.68h2.14c1.44,0,2-.54,2-1.58s-.65-1.55-1.93-1.55H23.32Z"/><path class="cls-2" d="M39.23,18H33.87v3.19h5.91l-.25,1.72H31.85V11.82h7.63v1.72H33.87v2.72h5.36Z"/><path class="cls-2" d="M43.84,20.08l-1,2.81h-2l3.82-11.07h2.6l4,11.07H49l-1-2.81Zm3.71-1.73c-.88-2.53-1.41-4-1.67-5h0c-.28,1-.86,2.82-1.57,5Z"/><path class="cls-2" d="M53.75,13.54H50.32V11.82h8.94v1.72H55.83v9.35H53.75Z"/><path class="cls-2" d="M68.16,18H62.8v3.19h5.91l-.25,1.72H60.78V11.82h7.63v1.72H62.8v2.72h5.36Z"/><path class="cls-2" d="M76.37,20.08l-1,2.81H73.35l3.82-11.07h2.6l4,11.07H81.56l-1-2.81Zm3.71-1.73c-.88-2.53-1.41-4-1.67-5h0c-.28,1-.86,2.82-1.57,5Z"/><path class="cls-2" d="M85.28,22.89V11.82h2.61c1.46,2.52,4.32,7.36,4.87,8.56h0c-.12-1.24-.11-3.1-.11-4.92V11.82h1.9V22.89H92.1c-1.29-2.24-4.38-7.66-5-8.92h0c.08,1.07.1,3.2.1,5.19v3.73Z"/><path class="cls-2" d="M103.31,11.82V22.89h-2.08V11.82Z"/><path class="cls-2" d="M106.09,22.89V11.82h2.62c1.45,2.52,4.31,7.36,4.86,8.56h0c-.12-1.24-.12-3.1-.12-4.92V11.82h1.9V22.89h-2.47c-1.28-2.24-4.38-7.66-5-8.92h0c.08,1.07.1,3.2.1,5.19v3.73Z"/><path class="cls-2" d="M120.48,13.54H117V11.82H126v1.72h-3.43v9.35h-2.08Z"/><path class="cls-2" d="M134.89,18h-5.37v3.19h5.91l-.25,1.72H127.5V11.82h7.63v1.72h-5.61v2.72h5.37Z"/><path class="cls-2" d="M139.28,18.31v4.58h-2V11.82h4.68c2.36,0,3.63,1.3,3.63,3a2.59,2.59,0,0,1-1.7,2.61c.67.22,1.48.82,1.48,2.78v.52a8.55,8.55,0,0,0,.16,2.14h-2a7.6,7.6,0,0,1-.22-2.45v-.18c0-1.34-.35-2-2.2-2Zm0-1.68h2.15c1.44,0,2-.54,2-1.58s-.65-1.55-1.94-1.55h-2.24Z"/><path class="cls-2" d="M147.81,11.82h7.52v1.72h-5.48v3H155v1.72h-5.13v4.61h-2Z"/><path class="cls-2" d="M164.53,18h-5.36v3.19h5.91l-.26,1.72h-7.67V11.82h7.62v1.72h-5.6v2.72h5.36Z"/><path class="cls-2" d="M168.93,18.31v4.58h-2V11.82h4.68c2.37,0,3.64,1.3,3.64,3a2.59,2.59,0,0,1-1.71,2.61c.67.22,1.48.82,1.48,2.78v.52a8.55,8.55,0,0,0,.16,2.14h-2a7.6,7.6,0,0,1-.22-2.45v-.18c0-1.34-.35-2-2.2-2Zm0-1.68h2.14c1.44,0,2-.54,2-1.58s-.65-1.55-1.94-1.55h-2.23Z"/><path class="cls-2" d="M184.84,18h-5.36v3.19h5.91l-.26,1.72h-7.67V11.82h7.63v1.72h-5.61v2.72h5.36Z"/><path class="cls-2" d="M187.2,22.89V11.82h2.62c1.45,2.52,4.31,7.36,4.86,8.56h0c-.12-1.24-.12-3.1-.12-4.92V11.82h1.9V22.89H194c-1.28-2.24-4.38-7.66-5-8.92h0c.08,1.07.09,3.2.09,5.19v3.73Z"/><path class="cls-2" d="M208.4,19.58A4.34,4.34,0,0,1,203.76,23c-3.45,0-5.11-2.49-5.11-5.63s1.7-5.75,5.2-5.75c2.83,0,4.26,1.65,4.55,3.5h-2.08a2.39,2.39,0,0,0-2.54-1.84c-2.13,0-3,1.92-3,4s.76,4.05,3,4.05a2.43,2.43,0,0,0,2.48-1.81Z"/><path class="cls-2" d="M217.73,18h-5.36v3.19h5.91L218,22.89h-7.68V11.82H218v1.72h-5.61v2.72h5.36Z"/><path class="cls-2" d="M226.1,18.31v4.58h-2V11.82h4.68c2.37,0,3.64,1.3,3.64,3a2.59,2.59,0,0,1-1.71,2.61c.67.22,1.48.82,1.48,2.78v.52a8.55,8.55,0,0,0,.16,2.14h-2a7.6,7.6,0,0,1-.22-2.45v-.18c0-1.34-.35-2-2.2-2Zm0-1.68h2.14c1.44,0,2-.54,2-1.58s-.65-1.55-1.94-1.55H226.1Z"/><path class="cls-2" d="M242,18h-5.36v3.19h5.91l-.25,1.72h-7.68V11.82h7.63v1.72h-5.61v2.72H242Z"/><path class="cls-2" d="M244.37,11.82h4.45c2.29,0,3.84,1.29,3.84,3.36,0,2.32-1.73,3.44-3.91,3.44h-2.3v4.27h-2.08Zm2.08,5.12h2.08c1.25,0,2-.53,2-1.72s-.86-1.72-2-1.72h-2.13Z"/><path class="cls-2" d="M264.73,17.31c0,3.07-1.8,5.74-5.36,5.74-3.4,0-5.22-2.52-5.22-5.69s2-5.7,5.36-5.7C262.71,11.66,264.73,14,264.73,17.31Zm-8.43,0c0,2.24,1,4,3.15,4,2.28,0,3.13-1.89,3.13-4s-1-4-3.15-4S256.3,15.08,256.3,17.31Z"/><path class="cls-2" d="M268.92,18.31v4.58h-2V11.82h4.68c2.37,0,3.64,1.3,3.64,3a2.59,2.59,0,0,1-1.7,2.61c.67.22,1.48.82,1.48,2.78v.52a8.6,8.6,0,0,0,.15,2.14h-2a8,8,0,0,1-.21-2.45v-.18c0-1.34-.36-2-2.21-2Zm0-1.68h2.15c1.44,0,2-.54,2-1.58s-.65-1.55-1.93-1.55h-2.24Z"/><path class="cls-2" d="M279.78,13.54h-3.43V11.82h8.94v1.72h-3.43v9.35h-2.08Z"/></g></g></svg>