<svg xmlns="http://www.w3.org/2000/svg" viewBox="0 0 187.5 75.78"><defs><style>.cls-1{fill:#036;}.cls-2{fill:#eee;}</style></defs><title>Read</title><g id="Layer_2" data-name="Layer 2"><g id="Footer"><rect class="cls-1" width="187.5" height="75.78"/><path class="cls-2" d="M42.57,38.44V42.6H39.43v-11H44.9c2.59,0,3.85,1.39,3.85,3.05a2.66,2.66,0,0,1-1.66,2.61c.7.25,1.44,1,1.44,2.85v.46a10.53,10.53,0,0,0,.14,2.05H45.59a7.77,7.77,0,0,1-.23-2.41v-.28c0-.95-.23-1.47-1.65-1.47Zm0-2.25h1.49c1.08,0,1.47-.45,1.47-1.19s-.46-1.17-1.45-1.17H42.57Z"/><path class="cls-2" d="M60.16,38.14h-5v2.07h5.61l-.36,2.39H52v-11h8.35V34H55.14v1.78h5Z"/><path class="cls-2" d="M66.86,40.46l-.64,2.14H63.07l3.48-11h4.19l3.62,11H71l-.66-2.14Zm2.89-2.4c-.52-1.73-.94-3.27-1.19-4.34h0c-.25,1.18-.67,2.76-1.12,4.34Z"/><path class="cls-2" d="M77.05,31.58h4.74c3.5,0,5.54,2.22,5.54,5.39a5.27,5.27,0,0,1-5.59,5.63H77.05Zm3.23,8.68h1.24C83.27,40.26,84,39,84,37c0-1.83-.67-3-2.43-3H80.28Z"/><path class="cls-2" d="M105.07,39c0-1.72,0-3.94.09-5.25h-.09c-.46,2.37-1.2,5.64-2,8.85h-2.58c-.64-3.11-1.36-6.39-1.79-8.85h-.1c.1,1.3.15,3.45.15,5.34V42.6H95.87v-11h4.65c.54,2.23,1.18,5.46,1.43,7.09h0c.28-1.77,1-4.7,1.66-7.09h4.52v11h-3.11Z"/><path class="cls-2" d="M122.64,37.08c0,3.12-1.88,5.73-5.65,5.73s-5.5-2.6-5.5-5.71,2-5.73,5.66-5.73C120.63,31.37,122.64,33.78,122.64,37.08Zm-7.82,0c0,2,.67,3.43,2.27,3.43s2.23-1.5,2.23-3.37-.59-3.41-2.27-3.41S114.82,35,114.82,37.05Z"/><path class="cls-2" d="M129.08,38.44V42.6h-3.14v-11h5.47c2.59,0,3.85,1.39,3.85,3.05a2.66,2.66,0,0,1-1.66,2.61c.7.25,1.44,1,1.44,2.85v.46a10.53,10.53,0,0,0,.14,2.05H132.1a7.77,7.77,0,0,1-.23-2.41v-.28c0-.95-.23-1.47-1.65-1.47Zm0-2.25h1.49c1.08,0,1.47-.45,1.47-1.19s-.46-1.17-1.45-1.17h-1.51Z"/><path class="cls-2" d="M146.67,38.14h-5v2.07h5.61l-.36,2.39h-8.36v-11h8.35V34h-5.24v1.78h5Z"/></g></g></svg>